<svg version="1.2" xmlns="http://www.w3.org/2000/svg" viewBox="0 0 720 720" width="720" height="720">
	<title>mohitnair</title>
	<style>
		.s0 { fill: #000000 } 
		.s1 { fill: #3961eb } 
	</style>
	<path id="Background" class="s0" d="m64 53h592c11 0 20 9 20 20v573c0 11-9 20-20 20h-592c-11 0-20-9-20-20v-573c0-11 9-20 20-20z"/>
	<path id="Shape 1" class="s0" d=""/>
	<path id="m" class="s1" aria-label="m"  d="m478 145q20.4 0 38.8 8.8 18.8 8.8 30.8 34 12 25.2 12 73.6v313.6h-62.4v-302.8q0-39.6-4.8-57.2-4.8-17.6-27.6-17.6-18.8 0-37.6 12-18.4 11.6-36 38.4v327.2h-62.8v-302.8q0-39.6-4.8-57.2-4.8-17.6-27.6-17.6-19.6 0-38 12-18 11.6-35.6 38.4v327.2h-62v-421.2h52.8l4 48.8q17.2-24.4 38.4-40.8 21.6-16.8 53.2-16.8 24 0 45.2 11.6 21.2 11.2 31.2 44 17.2-24.8 38.8-40 21.6-15.6 54-15.6z"/>
</svg>