<svg version="1.2" xmlns="http://www.w3.org/2000/svg" viewBox="0 0 500 500" width="500" height="500">
	<title>skywalker</title>
	<style>
		.s0 { fill: #ffff00 } 
	</style>
	<path id="m" class="s0" aria-label="m"  d="m350.4 447.8h50.1v-265.5q0-31.2-2.6-56-2.6-24.7-9.8-41.6-7.1-16.9-20.1-26-12.4-9.1-31.9-9.1-21.5 0-37.8 14.3-16.2 13.6-29.3 41.6-7.1-27.3-22.7-41.6-15.6-14.3-38.4-14.3-19.5 0-35.2 14.3-14.9 13.6-24 40.3v-41h-48.2v384.6h50.1v-257q0-44.3 12.4-67.1 12.3-22.7 32.5-22.7 18.9 0 24.7 20.1 6.5 19.6 6.5 56.6v270.1h47.5v-257q0-43.6 12.4-66.4 13-23.4 33.2-23.4 18.9 0 24.7 20.1 5.9 19.6 5.9 56.6z"/>
</svg>